# xmcd CD database file
#
# Track frame offsets:
#	150
#	16907
#	39235
#
# Disc length: 744 seconds
#
# Revision: 0
# Processed by: cddbd v1.5PL3 Copyright (c) Steve Scherf et al.
# Submitted via: CDex 1.50
#
DISCID=1502e603
DTITLE=加藤紀子 - 冷たくして下さい
DYEAR=1996
DGENRE=JPop
TTITLE0=冷たくして下さい
TTITLE1=さよならLazy Days
TTITLE2=冷たくして下さい (ｶﾗｵｹ)
EXTD=YEAR: 1996/05/10
EXTT0=
EXTT1=
EXTT2=
PLAYORDER=
